<?xml version="1.0" standalone="no"?>
<!DOCTYPE svg PUBLIC "-//W3C//DTD SVG 20010904//EN"
 "http://www.w3.org/TR/2001/REC-SVG-20010904/DTD/svg10.dtd">
<svg version="1.0" xmlns="http://www.w3.org/2000/svg"
 width="1500.000000pt" height="1500.000000pt" viewBox="0 0 1500.000000 1500.000000"
 preserveAspectRatio="xMidYMid meet">

<g transform="translate(0.000000,1500.000000) scale(0.100000,-0.100000)"
fill="#000000" stroke="none">
<path d="M9485 11161 c-205 -44 -305 -78 -185 -64 42 5 50 3 50 -11 0 -24 17
-20 25 7 6 19 8 19 12 5 5 -20 18 -23 28 -8 4 6 9 8 13 6 4 -2 28 -1 54 3 34
6 45 4 41 -5 -5 -15 13 -28 22 -15 9 16 34 1 28 -16 -4 -10 0 -14 13 -13 34 4
43 0 38 -15 -4 -10 0 -15 11 -15 23 0 105 -67 105 -86 0 -8 6 -14 13 -14 14 0
57 -41 54 -51 -1 -3 13 -18 31 -33 17 -15 32 -34 32 -42 0 -8 5 -14 11 -14 6
0 8 -9 4 -21 -5 -16 -3 -20 6 -17 15 5 69 -71 69 -97 0 -8 5 -15 11 -15 6 0 9
-9 6 -20 -3 -11 -1 -18 4 -15 10 7 40 -50 70 -132 12 -32 26 -63 31 -70 5 -7
7 -16 4 -22 -3 -5 -2 -11 3 -13 20 -7 199 -549 192 -585 -1 -6 3 -14 8 -18 6
-3 8 -12 4 -20 -3 -8 0 -15 7 -15 7 0 10 -7 7 -15 -4 -8 -2 -17 4 -21 6 -3 8
-12 5 -20 -3 -7 -1 -16 5 -20 6 -3 8 -12 5 -20 -3 -7 2 -20 10 -28 13 -14 12
-16 -11 -22 -27 -7 -35 -34 -10 -34 13 0 13 -3 3 -13 -7 -8 -20 -12 -30 -9
-13 3 -18 -1 -18 -17 0 -15 4 -19 18 -14 16 6 16 6 0 -10 -9 -9 -24 -14 -32
-11 -12 4 -16 0 -16 -16 0 -11 4 -18 10 -15 5 3 7 0 4 -9 -3 -8 -12 -12 -20
-9 -8 3 -17 -5 -24 -21 -14 -37 -32 -54 -52 -48 -12 3 -18 -1 -18 -12 0 -10 4
-15 9 -11 5 3 12 1 16 -5 4 -6 -7 -13 -24 -16 -17 -4 -31 -12 -31 -19 0 -18
-36 -56 -46 -47 -4 4 -3 -1 5 -10 7 -10 19 -14 28 -11 10 4 14 2 10 -4 -7 -11
88 -77 206 -143 32 -18 56 -35 53 -37 -12 -12 -342 198 -526 335 -437 324
-854 750 -1147 1171 -80 114 -88 122 -100 105 -35 -46 -34 -46 59 -174 326
-448 723 -846 1189 -1192 124 -92 162 -135 108 -121 -12 4 -19 0 -19 -9 0 -21
-37 -62 -42 -47 -3 8 -8 7 -19 -3 -8 -8 -22 -14 -32 -12 -9 1 -17 -1 -17 -6 0
-7 -24 -18 -55 -25 -5 -2 -12 -4 -15 -5 -3 -1 -14 -3 -24 -5 -10 -2 -23 -10
-27 -17 -7 -10 -11 -10 -19 2 -5 8 -10 10 -10 4 0 -5 5 -15 10 -20 8 -8 6 -15
-5 -24 -12 -10 -15 -10 -15 3 0 8 -7 17 -15 21 -8 3 -15 1 -15 -3 0 -5 5 -11
11 -13 7 -2 5 -9 -5 -17 -13 -11 -16 -11 -16 2 0 20 -24 29 -39 14 -9 -9 -14
-9 -20 2 -6 9 -10 10 -12 2 -4 -12 -46 -23 -91 -24 -16 0 -28 -4 -28 -9 0 -5
-9 -6 -20 -3 -11 4 -20 2 -20 -4 0 -6 8 -12 18 -13 59 -6 88 -2 100 12 12 13
13 12 9 -8 -5 -20 -2 -23 21 -21 15 1 34 -1 42 -5 8 -3 29 -8 45 -10 17 -2 37
-6 45 -10 8 -3 29 -8 45 -10 17 -2 37 -6 45 -9 8 -3 52 -17 98 -32 46 -15 81
-29 79 -31 -2 -2 -37 7 -78 21 -97 33 -279 69 -454 90 -240 28 -393 71 -563
160 -120 62 -183 110 -176 132 5 14 4 15 -4 4 -8 -11 -21 -5 -67 34 -89 77
-269 305 -252 321 3 3 8 -4 12 -16 5 -17 9 -19 21 -9 18 15 32 3 16 -13 -17
-17 -15 -28 3 -22 10 4 15 0 15 -11 0 -9 7 -30 17 -45 13 -24 18 -26 30 -15
17 18 16 23 -4 21 -12 -1 -17 5 -15 17 2 9 -2 17 -9 17 -6 0 -9 8 -6 20 3 11
2 20 -3 20 -4 0 -11 12 -14 26 -5 20 -10 24 -19 15 -15 -15 -27 -14 -27 4 0 8
7 15 16 15 8 0 13 4 9 10 -3 5 -12 7 -20 3 -9 -3 -15 1 -15 11 0 9 5 16 10 16
6 0 10 4 10 10 0 5 -7 7 -15 4 -9 -4 -15 0 -15 10 0 9 5 16 10 16 6 0 10 7 10
16 0 14 -3 14 -15 4 -12 -10 -15 -10 -15 3 0 9 5 19 10 22 6 3 10 12 10 18 0
7 -4 6 -10 -3 -15 -23 -24 -3 -12 26 7 14 8 23 3 20 -5 -4 -11 -2 -13 3 -3 9
-171 -8 -548 -54 -287 -34 -787 -96 -815 -100 -16 -3 -97 -14 -180 -24 -170
-23 -664 -90 -710 -96 -16 -3 -138 -21 -270 -40 -1868 -275 -3083 -551 -3825
-870 -362 -155 -725 -386 -959 -610 -171 -163 -324 -401 -406 -630 -50 -140
-60 -208 -59 -415 0 -167 3 -194 26 -282 71 -261 234 -497 484 -699 74 -60
174 -132 174 -125 0 2 -37 33 -83 69 -89 70 -255 234 -310 308 -158 211 -233
410 -242 644 -10 258 68 516 226 752 103 154 180 238 324 357 511 422 1244
699 2475 937 704 136 1583 255 2832 384 740 76 1856 185 1894 185 8 0 14 -5
14 -10 0 -20 95 -251 110 -268 8 -10 16 -24 18 -32 7 -32 54 -100 64 -94 7 4
8 2 4 -4 -10 -16 87 -142 171 -223 192 -185 423 -305 691 -359 116 -24 214
-25 272 -5 52 18 66 18 25 0 l-30 -14 45 0 c112 -1 306 40 448 97 62 24 63 25
45 46 -18 21 -18 21 4 2 22 -18 23 -18 89 19 76 43 114 67 176 116 54 42 138
120 138 128 0 4 -45 28 -100 55 l-100 48 39 46 c39 48 146 203 154 225 2 7 8
9 12 5 8 -8 -66 -126 -135 -214 l-48 -61 96 -47 96 -48 38 44 c111 126 223
327 272 490 49 163 70 416 46 563 -5 33 -12 76 -14 95 -13 91 -106 339 -149
395 -14 18 -14 12 1 -50 12 -54 16 -125 16 -310 1 -214 -1 -252 -22 -348 -25
-116 -87 -305 -127 -388 l-24 -50 27 -10 c26 -10 74 -8 117 5 11 4 7 0 -10 -8
-35 -17 -93 -20 -129 -6 l-25 9 35 78 c49 108 99 266 126 403 32 164 32 452 0
625 -28 146 -50 183 -197 330 -188 188 -385 302 -630 363 -117 30 -137 33
-275 38 l-125 5 50 -33 c28 -18 52 -35 55 -38 28 -30 109 -88 115 -82 5 4 5 1
1 -6 -5 -8 2 -16 18 -22 14 -5 26 -16 26 -24 0 -11 9 -14 38 -10 25 4 33 3 23
-4 -22 -16 -5 -29 31 -25 23 3 29 2 19 -5 -20 -14 -6 -30 23 -27 18 2 23 -1
19 -11 -3 -8 4 -18 18 -23 13 -5 18 -10 12 -10 -7 -1 -13 -6 -13 -12 0 -5 8
-9 18 -8 29 2 58 -2 45 -8 -27 -10 -14 -32 16 -28 22 2 28 0 24 -11 -3 -7 2
-17 12 -20 12 -5 13 -9 5 -14 -22 -13 -2 -28 32 -24 23 3 29 1 19 -5 -12 -8
-12 -12 -3 -24 7 -8 11 -21 10 -28 -2 -7 2 -13 9 -14 6 0 15 -3 19 -7 4 -4 13
-3 20 3 9 8 11 5 7 -10 -3 -12 -1 -21 5 -21 6 0 8 -9 5 -20 -3 -11 0 -20 6
-20 5 0 8 -7 5 -15 -4 -9 1 -18 11 -21 12 -5 13 -9 5 -14 -21 -13 -1 -29 33
-25 17 2 26 1 20 -2 -7 -2 -13 -14 -13 -24 0 -11 4 -18 9 -15 5 4 7 -3 4 -14
-4 -15 0 -20 13 -20 13 0 15 -3 7 -11 -12 -12 -6 -42 7 -34 5 3 6 -4 3 -15 -3
-11 -1 -20 5 -20 6 0 8 -9 5 -20 -4 -15 0 -20 13 -20 13 0 15 -3 6 -8 -9 -7
-10 -20 -1 -66 10 -45 15 -56 28 -51 15 5 15 4 0 -7 -9 -7 -14 -19 -11 -26 2
-7 -4 -20 -14 -27 -15 -11 -16 -17 -6 -23 7 -5 10 -16 6 -25 -3 -10 -1 -17 5
-17 6 0 11 -11 11 -25 0 -16 6 -25 16 -25 14 0 14 -1 0 -16 -9 -8 -16 -22 -16
-30 0 -8 -4 -14 -10 -14 -18 0 -11 -30 8 -31 10 0 12 -3 5 -6 -7 -2 -13 -13
-13 -24 0 -13 5 -17 18 -13 14 5 15 4 2 -5 -8 -6 -23 -11 -32 -11 -10 0 -18
-7 -18 -15 0 -8 8 -15 18 -15 13 0 14 -2 3 -9 -9 -6 -11 -18 -7 -35 5 -20 3
-24 -9 -20 -16 6 -21 -7 -7 -20 4 -4 7 -11 8 -14 7 -75 84 -223 152 -294 30
-32 50 -58 45 -58 -22 0 -119 118 -150 181 -17 35 -61 161 -97 279 -233 773
-401 1077 -710 1284 -69 46 -88 50 -151 37z m408 -136 c-3 -9 -8 -14 -10 -11
-3 3 -2 9 2 15 9 16 15 13 8 -4z m-40 -10 c-3 -9 -8 -14 -10 -11 -3 3 -2 9 2
15 9 16 15 13 8 -4z m260 -150 c-3 -9 -8 -14 -10 -11 -3 3 -2 9 2 15 9 16 15
13 8 -4z m-23 1 c0 -2 -7 -7 -16 -10 -8 -3 -12 -2 -9 4 6 10 25 14 25 6z m33
-41 c-3 -9 -8 -14 -10 -11 -3 3 -2 9 2 15 9 16 15 13 8 -4z m77 -59 c0 -2 -7
-7 -16 -10 -8 -3 -12 -2 -9 4 6 10 25 14 25 6z m138 -230 c-7 -8 -15 -12 -17
-11 -5 6 10 25 20 25 5 0 4 -6 -3 -14z m105 -231 c-3 -9 -8 -14 -10 -11 -3 3
-2 9 2 15 9 16 15 13 8 -4z m11 -350 c-4 -8 -8 -15 -10 -15 -2 0 -4 7 -4 15 0
8 4 15 10 15 5 0 7 -7 4 -15z m36 -69 c0 -2 -7 -7 -16 -10 -8 -3 -12 -2 -9 4
6 10 25 14 25 6z m-130 -340 c0 -3 -4 -8 -10 -11 -5 -3 -10 -1 -10 4 0 6 5 11
10 11 6 0 10 -2 10 -4z m-37 -61 c-3 -9 -8 -14 -10 -11 -3 3 -2 9 2 15 9 16
15 13 8 -4z m591 -96 c-16 -17 -38 -35 -49 -41 -11 -6 0 8 25 30 53 49 65 54
24 11z m-684 -13 c0 -3 -4 -8 -10 -11 -5 -3 -10 -1 -10 4 0 6 5 11 10 11 6 0
10 -2 10 -4z m-30 -50 c0 -3 -4 -8 -10 -11 -5 -3 -10 -1 -10 4 0 6 5 11 10 11
6 0 10 -2 10 -4z m-20 -50 c0 -2 -7 -7 -16 -10 -8 -3 -12 -2 -9 4 6 10 25 14
25 6z m-52 -20 c-7 -8 -15 -12 -17 -11 -5 6 10 25 20 25 5 0 4 -6 -3 -14z m22
-30 c0 -2 -7 -7 -16 -10 -8 -3 -12 -2 -9 4 6 10 25 14 25 6z m-1565 -56 c3 -5
1 -10 -4 -10 -6 0 -11 5 -11 10 0 6 2 10 4 10 3 0 8 -4 11 -10z m1445 -24 c0
-3 -4 -8 -10 -11 -5 -3 -10 -1 -10 4 0 6 5 11 10 11 6 0 10 -2 10 -4z m-30
-10 c0 -2 -7 -7 -16 -10 -8 -3 -12 -2 -9 4 6 10 25 14 25 6z m-40 -10 c0 -2
-7 -7 -16 -10 -8 -3 -12 -2 -9 4 6 10 25 14 25 6z m10 -40 c0 -2 -7 -7 -16
-10 -8 -3 -12 -2 -9 4 6 10 25 14 25 6z m-40 -10 c0 -2 -7 -7 -16 -10 -8 -3
-12 -2 -9 4 6 10 25 14 25 6z m-40 -10 c0 -2 -7 -7 -16 -10 -8 -3 -12 -2 -9 4
6 10 25 14 25 6z m-50 -21 c-7 -9 -15 -13 -17 -11 -7 7 7 26 19 26 6 0 6 -6
-2 -15z m-40 -10 c-7 -9 -15 -13 -17 -11 -7 7 7 26 19 26 6 0 6 -6 -2 -15z
m-73 -10 c0 -8 -6 -16 -14 -19 -16 -7 -17 6 -1 22 15 15 15 15 15 -3z m32 -6
c-16 -10 -23 -4 -14 10 3 6 11 8 17 5 6 -4 5 -9 -3 -15z m-954 1 c3 -5 1 -10
-4 -10 -6 0 -11 5 -11 10 0 6 2 10 4 10 3 0 8 -4 11 -10z m55 -24 c0 -3 -4 -8
-10 -11 -5 -3 -10 -1 -10 4 0 6 5 11 10 11 6 0 10 -2 10 -4z m950 0 c0 -3 -4
-8 -10 -11 -5 -3 -10 -1 -10 4 0 6 5 11 10 11 6 0 10 -2 10 -4z m-200 -15 c0
-5 -7 -11 -15 -15 -9 -3 -15 0 -15 9 0 8 7 15 15 15 8 0 15 -4 15 -9z m-46
-16 c-4 -8 -10 -15 -15 -15 -5 0 -9 7 -9 15 0 8 7 15 15 15 9 0 12 -6 9 -15z
m176 11 c0 -2 -7 -7 -16 -10 -8 -3 -12 -2 -9 4 6 10 25 14 25 6z m-40 -10 c0
-2 -7 -7 -16 -10 -8 -3 -12 -2 -9 4 6 10 25 14 25 6z m-40 -10 c0 -2 -7 -7
-16 -10 -8 -3 -12 -2 -9 4 6 10 25 14 25 6z m-700 -20 c0 -3 -4 -8 -10 -11 -5
-3 -10 -1 -10 4 0 6 5 11 10 11 6 0 10 -2 10 -4z m1380 -60 c-30 -29 -87 -78
-127 -108 -40 -31 -69 -58 -66 -62 4 -3 4 -6 0 -6 -27 0 -3 29 76 93 50 41
107 91 126 111 19 20 37 33 40 30 3 -3 -19 -29 -49 -58z m-330 -81 c28 -14 50
-28 50 -30 0 -5 -99 42 -109 51 -12 11 15 1 59 -21z m25 -151 c-73 -46 -309
-155 -285 -132 3 3 42 22 88 42 46 21 113 55 150 76 74 43 110 54 47 14z"/>
<path d="M11267 11050 c-10 -113 -30 -169 -77 -223 -54 -61 -114 -85 -236 -94
l-99 -7 90 -8 c114 -11 172 -30 223 -73 58 -50 83 -109 96 -229 l12 -101 7 93
c16 220 116 304 367 313 26 1 6 5 -50 10 -116 11 -171 30 -226 81 -56 52 -82
115 -92 229 l-8 94 -7 -85z"/>
<path d="M11676 11105 c-4 -14 -20 -34 -36 -44 l-30 -18 25 -11 c14 -7 30 -23
37 -37 l11 -25 18 30 c10 16 30 32 44 36 l26 6 -23 12 c-12 6 -32 26 -44 44
l-22 32 -6 -25z"/>
<path d="M9220 11090 c0 -5 5 -10 10 -10 6 0 10 5 10 10 0 6 -4 10 -10 10 -5
0 -10 -4 -10 -10z"/>
<path d="M9310 11075 c0 -8 5 -15 10 -15 6 0 10 7 10 15 0 8 -4 15 -10 15 -5
0 -10 -7 -10 -15z"/>
<path d="M9482 11079 c2 -6 8 -10 13 -10 5 0 11 4 13 10 2 6 -4 11 -13 11 -9
0 -15 -5 -13 -11z"/>
<path d="M9178 11073 c7 -3 16 -2 19 1 4 3 -2 6 -13 5 -11 0 -14 -3 -6 -6z"/>
<path d="M9270 11065 c0 -8 5 -15 10 -15 6 0 10 7 10 15 0 8 -4 15 -10 15 -5
0 -10 -7 -10 -15z"/>
<path d="M9442 11069 c2 -6 8 -10 13 -10 5 0 11 4 13 10 2 6 -4 11 -13 11 -9
0 -15 -5 -13 -11z"/>
<path d="M9400 11055 c0 -8 5 -15 10 -15 6 0 10 7 10 15 0 8 -4 15 -10 15 -5
0 -10 -7 -10 -15z"/>
<path d="M9230 11050 c0 -5 5 -10 10 -10 6 0 10 5 10 10 0 6 -4 10 -10 10 -5
0 -10 -4 -10 -10z"/>
<path d="M9360 11045 c0 -8 5 -15 10 -15 6 0 10 7 10 15 0 8 -4 15 -10 15 -5
0 -10 -7 -10 -15z"/>
<path d="M9530 11050 c0 -5 7 -10 15 -10 8 0 15 5 15 10 0 6 -7 10 -15 10 -8
0 -15 -4 -15 -10z"/>
<path d="M9185 11040 c3 -5 10 -10 16 -10 5 0 9 5 9 10 0 6 -7 10 -16 10 -8 0
-12 -4 -9 -10z"/>
<path d="M9320 11036 c0 -9 5 -16 10 -16 6 0 10 4 10 9 0 6 -4 13 -10 16 -5 3
-10 -1 -10 -9z"/>
<path d="M9492 11039 c2 -6 8 -10 13 -10 5 0 11 4 13 10 2 6 -4 11 -13 11 -9
0 -15 -5 -13 -11z"/>
<path d="M9150 11030 c0 -5 5 -10 10 -10 6 0 10 5 10 10 0 6 -4 10 -10 10 -5
0 -10 -4 -10 -10z"/>
<path d="M9452 11031 c2 -7 7 -12 11 -12 12 1 9 15 -3 20 -7 2 -11 -2 -8 -8z"/>
<path d="M9105 11021 c-6 -11 9 -23 19 -14 9 9 7 23 -3 23 -6 0 -12 -4 -16 -9z"/>
<path d="M9280 11020 c0 -5 5 -10 10 -10 6 0 10 5 10 10 0 6 -4 10 -10 10 -5
0 -10 -4 -10 -10z"/>
<path d="M9415 11021 c-3 -5 -1 -12 5 -16 5 -3 10 1 10 9 0 18 -6 21 -15 7z"/>
<path d="M9580 11020 c0 -5 7 -10 15 -10 8 0 15 5 15 10 0 6 -7 10 -15 10 -8
0 -15 -4 -15 -10z"/>
<path d="M9065 11011 c-6 -11 9 -23 19 -14 9 9 7 23 -3 23 -6 0 -12 -4 -16 -9z"/>
<path d="M9240 11010 c0 -5 5 -10 10 -10 6 0 10 5 10 10 0 6 -4 10 -10 10 -5
0 -10 -4 -10 -10z"/>
<path d="M9376 11011 c-4 -7 -5 -15 -2 -18 9 -9 19 4 14 18 -4 11 -6 11 -12 0z"/>
<path d="M9540 11010 c0 -5 7 -10 15 -10 8 0 15 5 15 10 0 6 -7 10 -15 10 -8
0 -15 -4 -15 -10z"/>
<path d="M9026 11001 c-4 -5 -2 -12 3 -15 5 -4 12 -2 15 3 4 5 2 12 -3 15 -5
4 -12 2 -15 -3z"/>
<path d="M9200 11000 c0 -5 5 -10 10 -10 6 0 10 5 10 10 0 6 -4 10 -10 10 -5
0 -10 -4 -10 -10z"/>
<path d="M9500 11000 c0 -5 7 -10 16 -10 8 0 12 5 9 10 -3 6 -10 10 -16 10 -5
0 -9 -4 -9 -10z"/>
<path d="M9160 10990 c0 -5 5 -10 10 -10 6 0 10 5 10 10 0 6 -4 10 -10 10 -5
0 -10 -4 -10 -10z"/>
<path d="M9330 10990 c0 -5 5 -10 10 -10 6 0 10 5 10 10 0 6 -4 10 -10 10 -5
0 -10 -4 -10 -10z"/>
<path d="M9465 10990 c-3 -5 1 -10 10 -10 9 0 13 5 10 10 -3 6 -8 10 -10 10
-2 0 -7 -4 -10 -10z"/>
<path d="M9640 10990 c0 -5 5 -10 10 -10 6 0 10 5 10 10 0 6 -4 10 -10 10 -5
0 -10 -4 -10 -10z"/>
<path d="M8985 10980 c4 -6 11 -8 16 -5 14 9 11 15 -7 15 -8 0 -12 -5 -9 -10z"/>
<path d="M9120 10980 c0 -5 5 -10 10 -10 6 0 10 5 10 10 0 6 -4 10 -10 10 -5
0 -10 -4 -10 -10z"/>
<path d="M9290 10980 c0 -5 5 -10 10 -10 6 0 10 5 10 10 0 6 -4 10 -10 10 -5
0 -10 -4 -10 -10z"/>
<path d="M9425 10981 c-3 -5 -1 -12 5 -16 5 -3 10 1 10 9 0 18 -6 21 -15 7z"/>
<path d="M9600 10980 c0 -5 5 -10 10 -10 6 0 10 5 10 10 0 6 -4 10 -10 10 -5
0 -10 -4 -10 -10z"/>
<path d="M9080 10964 c0 -8 5 -12 10 -9 6 4 8 11 5 16 -9 14 -15 11 -15 -7z"/>
<path d="M9250 10970 c0 -5 5 -10 10 -10 6 0 10 5 10 10 0 6 -4 10 -10 10 -5
0 -10 -4 -10 -10z"/>
<path d="M9560 10970 c0 -5 5 -10 10 -10 6 0 10 5 10 10 0 6 -4 10 -10 10 -5
0 -10 -4 -10 -10z"/>
<path d="M9040 10954 c0 -8 5 -12 10 -9 6 4 8 11 5 16 -9 14 -15 11 -15 -7z"/>
<path d="M9210 10960 c0 -5 5 -10 10 -10 6 0 10 5 10 10 0 6 -4 10 -10 10 -5
0 -10 -4 -10 -10z"/>
<path d="M9385 10960 c3 -5 8 -10 11 -10 2 0 4 5 4 10 0 6 -5 10 -11 10 -5 0
-7 -4 -4 -10z"/>
<path d="M9520 10960 c0 -5 5 -10 11 -10 5 0 7 5 4 10 -3 6 -8 10 -11 10 -2 0
-4 -4 -4 -10z"/>
<path d="M9690 10960 c0 -5 5 -10 10 -10 6 0 10 5 10 10 0 6 -4 10 -10 10 -5
0 -10 -4 -10 -10z"/>
<path d="M9170 10950 c0 -5 5 -10 10 -10 6 0 10 5 10 10 0 6 -4 10 -10 10 -5
0 -10 -4 -10 -10z"/>
<path d="M9345 10950 c3 -5 8 -10 11 -10 2 0 4 5 4 10 0 6 -5 10 -11 10 -5 0
-7 -4 -4 -10z"/>
<path d="M9480 10944 c0 -8 5 -12 10 -9 6 4 8 11 5 16 -9 14 -15 11 -15 -7z"/>
<path d="M9650 10950 c0 -5 5 -10 10 -10 6 0 10 5 10 10 0 6 -4 10 -10 10 -5
0 -10 -4 -10 -10z"/>
<path d="M8995 10940 c4 -6 11 -8 16 -5 14 9 11 15 -7 15 -8 0 -12 -5 -9 -10z"/>
<path d="M9130 10940 c0 -5 5 -10 10 -10 6 0 10 5 10 10 0 6 -4 10 -10 10 -5
0 -10 -4 -10 -10z"/>
<path d="M9300 10940 c0 -5 5 -10 10 -10 6 0 10 5 10 10 0 6 -4 10 -10 10 -5
0 -10 -4 -10 -10z"/>
<path d="M9436 10941 c-4 -5 -2 -12 3 -15 5 -4 12 -2 15 3 4 5 2 12 -3 15 -5
4 -12 2 -15 -3z"/>
<path d="M9610 10940 c0 -5 5 -10 10 -10 6 0 10 5 10 10 0 6 -4 10 -10 10 -5
0 -10 -4 -10 -10z"/>
<path d="M8955 10930 c4 -6 11 -8 16 -5 14 9 11 15 -7 15 -8 0 -12 -5 -9 -10z"/>
<path d="M9090 10930 c0 -5 5 -10 11 -10 5 0 7 5 4 10 -3 6 -8 10 -11 10 -2 0
-4 -4 -4 -10z"/>
<path d="M9260 10930 c0 -5 5 -10 10 -10 6 0 10 5 10 10 0 6 -4 10 -10 10 -5
0 -10 -4 -10 -10z"/>
<path d="M9570 10930 c0 -5 5 -10 10 -10 6 0 10 5 10 10 0 6 -4 10 -10 10 -5
0 -10 -4 -10 -10z"/>
<path d="M9875 10930 c3 -5 10 -10 16 -10 5 0 9 5 9 10 0 6 -7 10 -16 10 -8 0
-12 -4 -9 -10z"/>
<path d="M8920 10920 c0 -5 5 -10 10 -10 6 0 10 5 10 10 0 6 -4 10 -10 10 -5
0 -10 -4 -10 -10z"/>
<path d="M9225 10920 c-3 -5 -1 -10 4 -10 6 0 11 5 11 10 0 6 -2 10 -4 10 -3
0 -8 -4 -11 -10z"/>
<path d="M9530 10920 c0 -5 5 -10 11 -10 5 0 7 5 4 10 -3 6 -8 10 -11 10 -2 0
-4 -4 -4 -10z"/>
<path d="M9700 10920 c0 -5 5 -10 10 -10 6 0 10 5 10 10 0 6 -4 10 -10 10 -5
0 -10 -4 -10 -10z"/>
<path d="M8880 10910 c0 -5 5 -10 10 -10 6 0 10 5 10 10 0 6 -4 10 -10 10 -5
0 -10 -4 -10 -10z"/>
<path d="M9660 10910 c0 -5 5 -10 10 -10 6 0 10 5 10 10 0 6 -4 10 -10 10 -5
0 -10 -4 -10 -10z"/>
<path d="M9010 10899 c0 -5 5 -7 10 -4 6 3 10 8 10 11 0 2 -4 4 -10 4 -5 0
-10 -5 -10 -11z"/>
<path d="M9620 10900 c0 -5 5 -10 10 -10 6 0 10 5 10 10 0 6 -4 10 -10 10 -5
0 -10 -4 -10 -10z"/>
<path d="M9925 10901 c-6 -11 9 -23 19 -14 9 9 7 23 -3 23 -6 0 -12 -4 -16 -9z"/>
<path d="M8970 10890 c0 -5 5 -10 10 -10 6 0 10 5 10 10 0 6 -4 10 -10 10 -5
0 -10 -4 -10 -10z"/>
<path d="M9580 10890 c0 -5 5 -10 10 -10 6 0 10 5 10 10 0 6 -4 10 -10 10 -5
0 -10 -4 -10 -10z"/>
<path d="M9750 10890 c0 -5 5 -10 10 -10 6 0 10 5 10 10 0 6 -4 10 -10 10 -5
0 -10 -4 -10 -10z"/>
<path d="M8930 10880 c0 -5 5 -10 10 -10 6 0 10 5 10 10 0 6 -4 10 -10 10 -5
0 -10 -4 -10 -10z"/>
<path d="M9540 10880 c0 -5 5 -10 11 -10 5 0 7 5 4 10 -3 6 -8 10 -11 10 -2 0
-4 -4 -4 -10z"/>
<path d="M9710 10880 c0 -5 5 -10 10 -10 6 0 10 5 10 10 0 6 -4 10 -10 10 -5
0 -10 -4 -10 -10z"/>
<path d="M9670 10870 c0 -5 5 -10 10 -10 6 0 10 5 10 10 0 6 -4 10 -10 10 -5
0 -10 -4 -10 -10z"/>
<path d="M9980 10864 c0 -8 5 -12 10 -9 6 3 10 10 10 16 0 5 -4 9 -10 9 -5 0
-10 -7 -10 -16z"/>
<path d="M8850 10860 c0 -5 5 -10 11 -10 5 0 7 5 4 10 -3 6 -8 10 -11 10 -2 0
-4 -4 -4 -10z"/>
<path d="M9630 10860 c0 -5 5 -10 10 -10 6 0 10 5 10 10 0 6 -4 10 -10 10 -5
0 -10 -4 -10 -10z"/>
<path d="M9940 10854 c0 -8 5 -12 10 -9 6 3 10 10 10 16 0 5 -4 9 -10 9 -5 0
-10 -7 -10 -16z"/>
<path d="M8810 10844 c0 -8 5 -12 10 -9 6 4 8 11 5 16 -9 14 -15 11 -15 -7z"/>
<path d="M9760 10850 c0 -5 5 -10 10 -10 6 0 10 5 10 10 0 6 -4 10 -10 10 -5
0 -10 -4 -10 -10z"/>
<path d="M9720 10840 c0 -5 5 -10 10 -10 6 0 10 5 10 10 0 6 -4 10 -10 10 -5
0 -10 -4 -10 -10z"/>
<path d="M9990 10824 c0 -8 5 -12 10 -9 6 3 10 10 10 16 0 5 -4 9 -10 9 -5 0
-10 -7 -10 -16z"/>
<path d="M9815 10820 c4 -6 11 -8 16 -5 14 9 11 15 -7 15 -8 0 -12 -5 -9 -10z"/>
<path d="M9775 10810 c3 -5 8 -10 11 -10 2 0 4 5 4 10 0 6 -5 10 -11 10 -5 0
-7 -4 -4 -10z"/>
<path d="M10040 10795 c0 -9 5 -15 11 -13 6 2 11 8 11 13 0 5 -5 11 -11 13 -6
2 -11 -4 -11 -13z"/>
<path d="M8780 10789 c0 -5 5 -7 10 -4 6 3 10 8 10 11 0 2 -4 4 -10 4 -5 0
-10 -5 -10 -11z"/>
<path d="M10000 10785 c0 -8 5 -15 10 -15 6 0 10 7 10 15 0 8 -4 15 -10 15 -5
0 -10 -7 -10 -15z"/>
<path d="M8740 10779 c0 -5 5 -7 10 -4 6 3 10 8 10 11 0 2 -4 4 -10 4 -5 0
-10 -5 -10 -11z"/>
<path d="M9830 10779 c0 -5 5 -7 10 -4 6 3 10 8 10 11 0 2 -4 4 -10 4 -5 0
-10 -5 -10 -11z"/>
<path d="M9790 10770 c0 -5 5 -10 11 -10 5 0 7 5 4 10 -3 6 -8 10 -11 10 -2 0
-4 -4 -4 -10z"/>
<path d="M10092 10769 c2 -6 8 -10 13 -10 5 0 11 4 13 10 2 6 -4 11 -13 11 -9
0 -15 -5 -13 -11z"/>
<path d="M10052 10761 c2 -7 7 -12 11 -12 12 1 9 15 -3 20 -7 2 -11 -2 -8 -8z"/>
<path d="M10010 10751 c0 -6 5 -13 10 -16 6 -3 10 1 10 9 0 9 -4 16 -10 16 -5
0 -10 -4 -10 -9z"/>
<path d="M9840 10739 c0 -5 5 -7 10 -4 6 3 10 8 10 11 0 2 -4 4 -10 4 -5 0
-10 -5 -10 -11z"/>
<path d="M10100 10730 c0 -5 7 -10 15 -10 8 0 15 5 15 10 0 6 -7 10 -15 10 -8
0 -15 -4 -15 -10z"/>
<path d="M10062 10721 c2 -7 7 -12 11 -12 12 1 9 15 -3 20 -7 2 -11 -2 -8 -8z"/>
<path d="M9890 10710 c0 -5 5 -10 10 -10 6 0 10 5 10 10 0 6 -4 10 -10 10 -5
0 -10 -4 -10 -10z"/>
<path d="M10152 10699 c2 -6 8 -10 13 -10 5 0 11 4 13 10 2 6 -4 11 -13 11 -9
0 -15 -5 -13 -11z"/>
<path d="M10112 10689 c2 -6 8 -10 13 -10 5 0 11 4 13 10 2 6 -4 11 -13 11 -9
0 -15 -5 -13 -11z"/>
<path d="M10076 10681 c-4 -5 -2 -12 3 -15 5 -4 12 -2 15 3 4 5 2 12 -3 15 -5
4 -12 2 -15 -3z"/>
<path d="M9905 10670 c3 -5 8 -10 11 -10 2 0 4 5 4 10 0 6 -5 10 -11 10 -5 0
-7 -4 -4 -10z"/>
<path d="M10162 10659 c2 -6 8 -10 13 -10 5 0 11 4 13 10 2 6 -4 11 -13 11 -9
0 -15 -5 -13 -11z"/>
<path d="M10125 10651 c-6 -11 9 -23 19 -14 9 9 7 23 -3 23 -6 0 -12 -4 -16
-9z"/>
<path d="M10086 10641 c-4 -5 -2 -12 3 -15 5 -4 12 -2 15 3 4 5 2 12 -3 15 -5
4 -12 2 -15 -3z"/>
<path d="M10220 10624 c0 -8 5 -12 10 -9 6 3 10 10 10 16 0 5 -4 9 -10 9 -5 0
-10 -7 -10 -16z"/>
<path d="M10175 10620 c-3 -5 1 -10 9 -10 9 0 16 5 16 10 0 6 -4 10 -9 10 -6
0 -13 -4 -16 -10z"/>
<path d="M10140 10604 c0 -8 5 -12 10 -9 6 3 10 10 10 16 0 5 -4 9 -10 9 -5 0
-10 -7 -10 -16z"/>
<path d="M11886 10585 c-17 -84 -51 -117 -139 -135 l-42 -8 40 -1 c74 -2 123
-49 144 -138 l9 -38 1 33 c1 45 27 97 58 117 14 10 46 21 72 25 30 5 37 8 18
9 -76 3 -135 54 -146 127 l-7 49 -8 -40z"/>
<path d="M10100 10594 c0 -8 5 -12 10 -9 6 4 8 11 5 16 -9 14 -15 11 -15 -7z"/>
<path d="M10230 10585 c0 -8 5 -15 10 -15 6 0 10 7 10 15 0 8 -4 15 -10 15 -5
0 -10 -7 -10 -15z"/>
<path d="M10190 10574 c0 -8 5 -12 10 -9 6 3 10 10 10 16 0 5 -4 9 -10 9 -5 0
-10 -7 -10 -16z"/>
<path d="M10150 10564 c0 -8 5 -12 10 -9 6 3 10 10 10 16 0 5 -4 9 -10 9 -5 0
-10 -7 -10 -16z"/>
<path d="M10110 10549 c0 -5 5 -7 10 -4 6 3 10 8 10 11 0 2 -4 4 -10 4 -5 0
-10 -5 -10 -11z"/>
<path d="M10240 10551 c0 -6 5 -13 10 -16 6 -3 10 1 10 9 0 9 -4 16 -10 16 -5
0 -10 -4 -10 -9z"/>
<path d="M10200 10535 c0 -8 5 -15 10 -15 6 0 10 7 10 15 0 8 -4 15 -10 15 -5
0 -10 -7 -10 -15z"/>
<path d="M10160 10525 c0 -8 5 -15 10 -15 6 0 10 7 10 15 0 8 -4 15 -10 15 -5
0 -10 -7 -10 -15z"/>
<path d="M10250 10511 c0 -6 5 -13 10 -16 6 -3 10 1 10 9 0 9 -4 16 -10 16 -5
0 -10 -4 -10 -9z"/>
<path d="M10212 10501 c2 -7 7 -12 11 -12 12 1 9 15 -3 20 -7 2 -11 -2 -8 -8z"/>
<path d="M10175 10491 c-3 -5 -1 -12 5 -16 5 -3 10 1 10 9 0 18 -6 21 -15 7z"/>
<path d="M10302 10479 c2 -6 8 -10 13 -10 5 0 11 4 13 10 2 6 -4 11 -13 11 -9
0 -15 -5 -13 -11z"/>
<path d="M10262 10471 c4 -13 18 -16 19 -4 0 4 -5 9 -11 12 -7 2 -11 -2 -8 -8z"/>
<path d="M10226 10461 c-4 -5 -2 -12 3 -15 5 -4 12 -2 15 3 4 5 2 12 -3 15 -5
4 -12 2 -15 -3z"/>
<path d="M10185 10440 c3 -5 8 -10 11 -10 2 0 4 5 4 10 0 6 -5 10 -11 10 -5 0
-7 -4 -4 -10z"/>
<path d="M10312 10439 c2 -6 8 -10 13 -10 5 0 11 4 13 10 2 6 -4 11 -13 11 -9
0 -15 -5 -13 -11z"/>
<path d="M10272 10431 c4 -13 18 -16 19 -4 0 4 -5 9 -11 12 -7 2 -11 -2 -8 -8z"/>
<path d="M10236 10421 c-4 -5 -2 -12 3 -15 5 -4 12 -2 15 3 4 5 2 12 -3 15 -5
4 -12 2 -15 -3z"/>
<path d="M10195 10400 c3 -5 8 -10 11 -10 2 0 4 5 4 10 0 6 -5 10 -11 10 -5 0
-7 -4 -4 -10z"/>
<path d="M10325 10401 c-6 -11 9 -23 19 -14 9 9 7 23 -3 23 -6 0 -12 -4 -16
-9z"/>
<path d="M10286 10391 c-4 -5 -2 -12 3 -15 5 -4 12 -2 15 3 4 5 2 12 -3 15 -5
4 -12 2 -15 -3z"/>
<path d="M10246 10381 c-4 -5 -2 -12 3 -15 5 -4 12 -2 15 3 4 5 2 12 -3 15 -5
4 -12 2 -15 -3z"/>
<path d="M10205 10360 c4 -6 11 -8 16 -5 14 9 11 15 -7 15 -8 0 -12 -5 -9 -10z"/>
<path d="M10337 10364 c-8 -8 1 -24 14 -24 5 0 9 7 9 15 0 15 -12 20 -23 9z"/>
<path d="M10300 10344 c0 -8 5 -12 10 -9 6 3 10 10 10 16 0 5 -4 9 -10 9 -5 0
-10 -7 -10 -16z"/>
<path d="M10260 10329 c0 -5 5 -7 10 -4 6 3 10 8 10 11 0 2 -4 4 -10 4 -5 0
-10 -5 -10 -11z"/>
<path d="M10215 10320 c4 -6 11 -8 16 -5 14 9 11 15 -7 15 -8 0 -12 -5 -9 -10z"/>
<path d="M10350 10315 c0 -8 5 -15 10 -15 6 0 10 7 10 15 0 8 -4 15 -10 15 -5
0 -10 -7 -10 -15z"/>
<path d="M10310 10305 c0 -8 5 -15 10 -15 6 0 10 7 10 15 0 8 -4 15 -10 15 -5
0 -10 -7 -10 -15z"/>
<path d="M10270 10290 c0 -5 5 -10 10 -10 6 0 10 5 10 10 0 6 -4 10 -10 10 -5
0 -10 -4 -10 -10z"/>
<path d="M10230 10280 c0 -5 5 -10 10 -10 6 0 10 5 10 10 0 6 -4 10 -10 10 -5
0 -10 -4 -10 -10z"/>
<path d="M10360 10275 c0 -9 5 -15 11 -13 6 2 11 8 11 13 0 5 -5 11 -11 13 -6
2 -11 -4 -11 -13z"/>
<path d="M10320 10265 c0 -8 5 -15 10 -15 6 0 10 7 10 15 0 8 -4 15 -10 15 -5
0 -10 -7 -10 -15z"/>
<path d="M10280 10250 c0 -5 5 -10 10 -10 6 0 10 5 10 10 0 6 -4 10 -10 10 -5
0 -10 -4 -10 -10z"/>
<path d="M10240 10240 c0 -5 5 -10 10 -10 6 0 10 5 10 10 0 6 -4 10 -10 10 -5
0 -10 -4 -10 -10z"/>
<path d="M10370 10235 c0 -9 5 -15 11 -13 6 2 11 8 11 13 0 5 -5 11 -11 13 -6
2 -11 -4 -11 -13z"/>
<path d="M10330 10220 c0 -5 4 -10 9 -10 6 0 13 5 16 10 3 6 -1 10 -9 10 -9 0
-16 -4 -16 -10z"/>
<path d="M10290 10210 c0 -5 5 -10 10 -10 6 0 10 5 10 10 0 6 -4 10 -10 10 -5
0 -10 -4 -10 -10z"/>
<path d="M10250 10200 c0 -5 5 -10 10 -10 6 0 10 5 10 10 0 6 -4 10 -10 10 -5
0 -10 -4 -10 -10z"/>
<path d="M10380 10195 c0 -9 5 -15 11 -13 6 2 11 8 11 13 0 5 -5 11 -11 13 -6
2 -11 -4 -11 -13z"/>
<path d="M10345 10189 c-10 -15 3 -25 16 -12 7 7 7 13 1 17 -6 3 -14 1 -17 -5z"/>
<path d="M10300 10170 c0 -5 5 -10 10 -10 6 0 10 5 10 10 0 6 -4 10 -10 10 -5
0 -10 -4 -10 -10z"/>
<path d="M10260 10160 c0 -5 5 -10 10 -10 6 0 10 5 10 10 0 6 -4 10 -10 10 -5
0 -10 -4 -10 -10z"/>
<path d="M10396 10163 c-11 -11 -6 -23 9 -23 8 0 15 4 15 9 0 13 -16 22 -24
14z"/>
<path d="M10355 10149 c-10 -15 3 -25 16 -12 7 7 7 13 1 17 -6 3 -14 1 -17 -5z"/>
<path d="M10310 10130 c0 -5 5 -10 10 -10 6 0 10 5 10 10 0 6 -4 10 -10 10 -5
0 -10 -4 -10 -10z"/>
<path d="M10360 10100 c0 -5 7 -10 15 -10 8 0 15 5 15 10 0 6 -7 10 -15 10 -8
0 -15 -4 -15 -10z"/>
<path d="M10320 10090 c0 -5 7 -10 15 -10 8 0 15 5 15 10 0 6 -7 10 -15 10 -8
0 -15 -4 -15 -10z"/>
<path d="M10375 10060 c3 -5 10 -10 16 -10 5 0 9 5 9 10 0 6 -7 10 -16 10 -8
0 -12 -4 -9 -10z"/>
<path d="M10330 10050 c0 -5 7 -10 15 -10 8 0 15 5 15 10 0 6 -7 10 -15 10 -8
0 -15 -4 -15 -10z"/>
<path d="M10300 10040 c0 -5 5 -10 10 -10 6 0 10 5 10 10 0 6 -4 10 -10 10 -5
0 -10 -4 -10 -10z"/>
<path d="M10385 10020 c3 -5 10 -10 16 -10 5 0 9 5 9 10 0 6 -7 10 -16 10 -8
0 -12 -4 -9 -10z"/>
<path d="M10350 10010 c0 -5 5 -10 10 -10 6 0 10 5 10 10 0 6 -4 10 -10 10 -5
0 -10 -4 -10 -10z"/>
<path d="M10310 10000 c0 -5 5 -10 10 -10 6 0 10 5 10 10 0 6 -4 10 -10 10 -5
0 -10 -4 -10 -10z"/>
<path d="M10400 9980 c0 -5 5 -10 10 -10 6 0 10 5 10 10 0 6 -4 10 -10 10 -5
0 -10 -4 -10 -10z"/>
<path d="M10360 9970 c0 -5 5 -10 10 -10 6 0 10 5 10 10 0 6 -4 10 -10 10 -5
0 -10 -4 -10 -10z"/>
<path d="M10320 9960 c0 -5 5 -10 10 -10 6 0 10 5 10 10 0 6 -4 10 -10 10 -5
0 -10 -4 -10 -10z"/>
<path d="M10370 9924 c0 -8 5 -12 10 -9 6 3 10 10 10 16 0 5 -4 9 -10 9 -5 0
-10 -7 -10 -16z"/>
<path d="M10380 9885 c0 -9 5 -15 11 -13 6 2 11 8 11 13 0 5 -5 11 -11 13 -6
2 -11 -4 -11 -13z"/>
<path d="M10351 9874 c0 -11 3 -14 6 -6 3 7 2 16 -1 19 -3 4 -6 -2 -5 -13z"/>
<path d="M10225 9840 c-3 -5 -1 -10 4 -10 6 0 11 5 11 10 0 6 -2 10 -4 10 -3
0 -8 -4 -11 -10z"/>
<path d="M10361 9834 c0 -11 3 -14 6 -6 3 7 2 16 -1 19 -3 4 -6 -2 -5 -13z"/>
<path d="M10370 9794 c0 -8 5 -12 10 -9 6 4 8 11 5 16 -9 14 -15 11 -15 -7z"/>
<path d="M10250 9720 c0 -5 5 -10 10 -10 6 0 10 5 10 10 0 6 -4 10 -10 10 -5
0 -10 -4 -10 -10z"/>
<path d="M10260 9680 c0 -5 5 -10 10 -10 6 0 10 5 10 10 0 6 -4 10 -10 10 -5
0 -10 -4 -10 -10z"/>
<path d="M10270 9640 c0 -5 7 -10 15 -10 8 0 15 5 15 10 0 6 -7 10 -15 10 -8
0 -15 -4 -15 -10z"/>
<path d="M10240 9630 c0 -5 5 -10 10 -10 6 0 10 5 10 10 0 6 -4 10 -10 10 -5
0 -10 -4 -10 -10z"/>
<path d="M10290 9594 c0 -8 5 -12 10 -9 6 3 10 10 10 16 0 5 -4 9 -10 9 -5 0
-10 -7 -10 -16z"/>
<path d="M10250 9584 c0 -8 5 -12 10 -9 6 3 10 10 10 16 0 5 -4 9 -10 9 -5 0
-10 -7 -10 -16z"/>
<path d="M10210 9574 c0 -8 5 -12 10 -9 6 4 8 11 5 16 -9 14 -15 11 -15 -7z"/>
<path d="M10260 9544 c0 -8 5 -12 10 -9 6 3 10 10 10 16 0 5 -4 9 -10 9 -5 0
-10 -7 -10 -16z"/>
<path d="M10220 9534 c0 -8 5 -12 10 -9 6 4 8 11 5 16 -9 14 -15 11 -15 -7z"/>
<path d="M10230 9495 c0 -8 5 -15 10 -15 6 0 10 7 10 15 0 8 -4 15 -10 15 -5
0 -10 -7 -10 -15z"/>
<path d="M10190 9486 c0 -9 5 -16 10 -16 6 0 10 4 10 9 0 6 -4 13 -10 16 -5 3
-10 -1 -10 -9z"/>
<path d="M10200 9446 c0 -9 5 -16 10 -16 6 0 10 4 10 9 0 6 -4 13 -10 16 -5 3
-10 -1 -10 -9z"/>
<path d="M8505 9440 c-3 -5 -12 -7 -19 -4 -8 3 -17 1 -20 -4 -3 -6 1 -13 10
-16 8 -3 13 -10 10 -15 -3 -5 2 -15 11 -22 15 -13 16 -11 9 14 -4 18 -2 34 5
43 6 8 9 14 6 14 -3 0 -8 -4 -12 -10z"/>
<path d="M10160 9430 c0 -5 5 -10 10 -10 6 0 10 5 10 10 0 6 -4 10 -10 10 -5
0 -10 -4 -10 -10z"/>
<path d="M10125 9420 c-3 -5 -1 -10 4 -10 6 0 11 5 11 10 0 6 -2 10 -4 10 -3
0 -8 -4 -11 -10z"/>
<path d="M10170 9390 c0 -5 5 -10 10 -10 6 0 10 5 10 10 0 6 -4 10 -10 10 -5
0 -10 -4 -10 -10z"/>
<path d="M10130 9380 c0 -5 5 -10 10 -10 6 0 10 5 10 10 0 6 -4 10 -10 10 -5
0 -10 -4 -10 -10z"/>
<path d="M10095 9370 c-3 -5 -1 -10 4 -10 6 0 11 5 11 10 0 6 -2 10 -4 10 -3
0 -8 -4 -11 -10z"/>
<path d="M8525 9360 c-3 -5 1 -10 10 -10 9 0 13 5 10 10 -3 6 -8 10 -10 10 -2
0 -7 -4 -10 -10z"/>
<path d="M8550 9328 c0 -14 18 -17 28 -5 8 10 6 13 -9 13 -10 0 -19 -4 -19 -8z"/>
<path d="M10100 9324 c0 -8 5 -12 10 -9 6 3 10 10 10 16 0 5 -4 9 -10 9 -5 0
-10 -7 -10 -16z"/>
<path d="M8590 9286 c0 -2 7 -7 16 -10 8 -3 12 -2 9 4 -6 10 -25 14 -25 6z"/>
<path d="M10070 9275 c0 -8 5 -15 10 -15 6 0 10 7 10 15 0 8 -4 15 -10 15 -5
0 -10 -7 -10 -15z"/>
<path d="M8642 9264 c-7 -8 -8 -14 -3 -14 10 0 25 19 20 25 -2 1 -10 -3 -17
-11z"/>
<path d="M10036 9271 c-4 -7 -5 -15 -2 -18 9 -9 19 4 14 18 -4 11 -6 11 -12 0z"/>
<path d="M9895 9140 c-3 -5 -2 -10 4 -10 5 0 13 5 16 10 3 6 2 10 -4 10 -5 0
-13 -4 -16 -10z"/>
<path d="M8900 9120 c-9 -6 -10 -10 -3 -10 6 0 15 5 18 10 8 12 4 12 -15 0z"/>
<path d="M9735 9090 c-3 -5 -1 -10 4 -10 6 0 11 5 11 10 0 6 -2 10 -4 10 -3 0
-8 -4 -11 -10z"/>
<path d="M9655 9070 c-3 -5 -1 -10 4 -10 6 0 11 5 11 10 0 6 -2 10 -4 10 -3 0
-8 -4 -11 -10z"/>
<path d="M9050 9030 c-13 -8 -12 -10 3 -10 9 0 17 5 17 10 0 12 -1 12 -20 0z"/>
<path d="M9235 8990 c-10 -11 -14 -20 -9 -20 5 0 15 9 22 20 7 11 11 20 9 20
-2 0 -12 -9 -22 -20z"/>
<path d="M9335 8980 c-4 -6 -13 -9 -21 -6 -7 3 -16 1 -19 -4 -4 -6 12 -10 37
-10 24 0 39 4 33 8 -5 4 -13 11 -16 15 -4 5 -10 3 -14 -3z"/>
<path d="M2804 8183 c-20 -32 -412 -644 -870 -1360 -459 -716 -834 -1305 -834
-1308 0 -3 300 -5 668 -5 l667 0 116 203 116 202 724 2 724 2 115 -202 115
-202 1830 0 c1885 0 1948 1 2275 41 446 53 740 171 882 351 83 107 120 209
138 389 13 129 1 215 -42 304 -43 88 -158 201 -259 254 -41 22 -76 41 -78 42
-2 2 22 31 53 65 131 141 173 279 154 502 -10 120 -45 256 -86 331 -15 28 -52
77 -81 109 -182 197 -488 291 -1061 327 -95 6 -638 10 -1287 10 l-1123 0 -2
-1339 -3 -1339 -855 1337 -856 1336 -552 3 -551 2 -37 -57z m5059 -812 c80
-18 102 -32 105 -68 3 -26 -2 -34 -25 -47 -64 -33 -138 -38 -570 -43 l-433 -5
0 92 0 92 438 -5 c263 -3 456 -9 485 -16z m-4354 -396 c61 -107 111 -197 111
-200 0 -3 -104 -5 -231 -5 -127 0 -229 3 -227 8 13 31 224 392 229 392 4 0 57
-88 118 -195z m4423 -444 c109 -17 138 -39 124 -95 -14 -56 -94 -65 -648 -73
l-468 -6 0 98 0 98 463 -6 c254 -3 492 -11 529 -16z"/>
<path d="M11016 8173 c-261 -405 -1690 -2641 -1693 -2651 -4 -10 130 -12 663
-10 l669 3 115 202 115 202 724 -2 724 -2 116 -202 116 -203 668 0 c367 0 667
3 666 8 0 4 -391 617 -868 1362 l-869 1355 -551 3 -551 2 -44 -67z m710 -1195
c60 -105 111 -195 112 -200 2 -4 -100 -8 -227 -8 -127 0 -231 2 -231 5 0 10
225 395 230 395 4 0 55 -86 116 -192z"/>
</g>
</svg>
